solid OpenSCAD_Model
  facet normal 1 0 0
    outer loop
      vertex 345 6 18
      vertex 345 0 18
      vertex 345 6 10
    endloop
  endfacet
  facet normal 1 -0 0
    outer loop
      vertex 345 6 10
      vertex 345 25 0
      vertex 345 25 10
    endloop
  endfacet
  facet normal 1 0 0
    outer loop
      vertex 345 6 10
      vertex 345 0 0
      vertex 345 25 0
    endloop
  endfacet
  facet normal 1 0 0
    outer loop
      vertex 345 0 0
      vertex 345 6 10
      vertex 345 0 18
    endloop
  endfacet
  facet normal -0 0 1
    outer loop
      vertex 0 25 10
      vertex 345 6 10
      vertex 345 25 10
    endloop
  endfacet
  facet normal 0 0 1
    outer loop
      vertex 345 6 10
      vertex 0 25 10
      vertex 0 6 10
    endloop
  endfacet
  facet normal 0 0 -1
    outer loop
      vertex 0 0 0
      vertex 345 25 0
      vertex 345 0 0
    endloop
  endfacet
  facet normal -0 0 -1
    outer loop
      vertex 345 25 0
      vertex 0 0 0
      vertex 0 25 0
    endloop
  endfacet
  facet normal -1 0 0
    outer loop
      vertex 0 25 0
      vertex 0 6 10
      vertex 0 25 10
    endloop
  endfacet
  facet normal -1 0 0
    outer loop
      vertex 0 0 0
      vertex 0 6 10
      vertex 0 25 0
    endloop
  endfacet
  facet normal -1 0 0
    outer loop
      vertex 0 0 18
      vertex 0 6 10
      vertex 0 0 0
    endloop
  endfacet
  facet normal -1 0 0
    outer loop
      vertex 0 6 10
      vertex 0 0 18
      vertex 0 6 18
    endloop
  endfacet
  facet normal 0 1 -0
    outer loop
      vertex 345 25 0
      vertex 0 25 10
      vertex 345 25 10
    endloop
  endfacet
  facet normal 0 1 0
    outer loop
      vertex 0 25 10
      vertex 345 25 0
      vertex 0 25 0
    endloop
  endfacet
  facet normal 0 -1 0
    outer loop
      vertex 0 0 0
      vertex 345 0 18
      vertex 0 0 18
    endloop
  endfacet
  facet normal 0 -1 -0
    outer loop
      vertex 345 0 18
      vertex 0 0 0
      vertex 345 0 0
    endloop
  endfacet
  facet normal -0 0 1
    outer loop
      vertex 0 6 18
      vertex 345 0 18
      vertex 345 6 18
    endloop
  endfacet
  facet normal 0 0 1
    outer loop
      vertex 345 0 18
      vertex 0 6 18
      vertex 0 0 18
    endloop
  endfacet
  facet normal 0 1 -0
    outer loop
      vertex 345 6 10
      vertex 0 6 18
      vertex 345 6 18
    endloop
  endfacet
  facet normal 0 1 0
    outer loop
      vertex 0 6 18
      vertex 345 6 10
      vertex 0 6 10
    endloop
  endfacet
endsolid OpenSCAD_Model
