solid OpenSCAD_Model
  facet normal 1 -0 0
    outer loop
      vertex 180 0 18
      vertex 180 30 0
      vertex 180 30 18
    endloop
  endfacet
  facet normal 1 0 0
    outer loop
      vertex 180 30 0
      vertex 180 0 18
      vertex 180 0 0
    endloop
  endfacet
  facet normal -0 0 1
    outer loop
      vertex 152.971 13.4175 18
      vertex 180 0 18
      vertex 180 30 18
    endloop
  endfacet
  facet normal 0 0 1
    outer loop
      vertex 180 0 18
      vertex 152.971 13.4175 18
      vertex 153 13 18
    endloop
  endfacet
  facet normal 0 0 1
    outer loop
      vertex 180 30 18
      vertex 152.884 13.8269 18
      vertex 152.971 13.4175 18
    endloop
  endfacet
  facet normal 0 0 1
    outer loop
      vertex 180 30 18
      vertex 152.741 14.2202 18
      vertex 152.884 13.8269 18
    endloop
  endfacet
  facet normal 0 0 1
    outer loop
      vertex 180 30 18
      vertex 152.544 14.5898 18
      vertex 152.741 14.2202 18
    endloop
  endfacet
  facet normal 0 0 1
    outer loop
      vertex 180 30 18
      vertex 152.298 14.9284 18
      vertex 152.544 14.5898 18
    endloop
  endfacet
  facet normal 0 0 1
    outer loop
      vertex 180 30 18
      vertex 152.007 15.2294 18
      vertex 152.298 14.9284 18
    endloop
  endfacet
  facet normal 0 0 1
    outer loop
      vertex 180 30 18
      vertex 151.678 15.4871 18
      vertex 152.007 15.2294 18
    endloop
  endfacet
  facet normal 0 0 1
    outer loop
      vertex 180 30 18
      vertex 151.315 15.6964 18
      vertex 151.678 15.4871 18
    endloop
  endfacet
  facet normal 0 0 1
    outer loop
      vertex 180 30 18
      vertex 150.927 15.8532 18
      vertex 151.315 15.6964 18
    endloop
  endfacet
  facet normal 0 0 1
    outer loop
      vertex 180 30 18
      vertex 150.521 15.9544 18
      vertex 150.927 15.8532 18
    endloop
  endfacet
  facet normal 0 0 1
    outer loop
      vertex 180 30 18
      vertex 150.105 15.9982 18
      vertex 150.521 15.9544 18
    endloop
  endfacet
  facet normal 0 0 1
    outer loop
      vertex 180 30 18
      vertex 30.1047 15.9982 18
      vertex 150.105 15.9982 18
    endloop
  endfacet
  facet normal -0 0 1
    outer loop
      vertex 0 30 18
      vertex 30.1047 15.9982 18
      vertex 180 30 18
    endloop
  endfacet
  facet normal 0 0 1
    outer loop
      vertex 0 0 18
      vertex 27.0073 13.2093 18
      vertex 0 30 18
    endloop
  endfacet
  facet normal 0 0 1
    outer loop
      vertex 27.0656 13.6237 18
      vertex 0 30 18
      vertex 27.0073 13.2093 18
    endloop
  endfacet
  facet normal 0 0 1
    outer loop
      vertex 27.1809 14.0261 18
      vertex 0 30 18
      vertex 27.0656 13.6237 18
    endloop
  endfacet
  facet normal 0 0 1
    outer loop
      vertex 27.3512 14.4084 18
      vertex 0 30 18
      vertex 27.1809 14.0261 18
    endloop
  endfacet
  facet normal 0 0 1
    outer loop
      vertex 27.5729 14.7634 18
      vertex 0 30 18
      vertex 27.3512 14.4084 18
    endloop
  endfacet
  facet normal 0 0 1
    outer loop
      vertex 27.842 15.084 18
      vertex 0 30 18
      vertex 27.5729 14.7634 18
    endloop
  endfacet
  facet normal 0 0 1
    outer loop
      vertex 28.153 15.364 18
      vertex 0 30 18
      vertex 27.842 15.084 18
    endloop
  endfacet
  facet normal 0 0 1
    outer loop
      vertex 28.5 15.5981 18
      vertex 0 30 18
      vertex 28.153 15.364 18
    endloop
  endfacet
  facet normal 0 0 1
    outer loop
      vertex 28.8762 15.7816 18
      vertex 0 30 18
      vertex 28.5 15.5981 18
    endloop
  endfacet
  facet normal 0 0 1
    outer loop
      vertex 29.2742 15.9109 18
      vertex 0 30 18
      vertex 28.8762 15.7816 18
    endloop
  endfacet
  facet normal 0 0 1
    outer loop
      vertex 29.6864 15.9836 18
      vertex 0 30 18
      vertex 29.2742 15.9109 18
    endloop
  endfacet
  facet normal 0 0 1
    outer loop
      vertex 30.1047 15.9982 18
      vertex 0 30 18
      vertex 29.6864 15.9836 18
    endloop
  endfacet
  facet normal -0 0 1
    outer loop
      vertex 152.971 12.5825 18
      vertex 180 0 18
      vertex 153 13 18
    endloop
  endfacet
  facet normal -0 0 1
    outer loop
      vertex 152.884 12.1731 18
      vertex 180 0 18
      vertex 152.971 12.5825 18
    endloop
  endfacet
  facet normal -0 0 1
    outer loop
      vertex 152.741 11.7798 18
      vertex 180 0 18
      vertex 152.884 12.1731 18
    endloop
  endfacet
  facet normal -0 0 1
    outer loop
      vertex 152.544 11.4102 18
      vertex 180 0 18
      vertex 152.741 11.7798 18
    endloop
  endfacet
  facet normal -0 0 1
    outer loop
      vertex 152.298 11.0716 18
      vertex 180 0 18
      vertex 152.544 11.4102 18
    endloop
  endfacet
  facet normal -0 0 1
    outer loop
      vertex 152.007 10.7706 18
      vertex 180 0 18
      vertex 152.298 11.0716 18
    endloop
  endfacet
  facet normal -0 0 1
    outer loop
      vertex 151.678 10.5129 18
      vertex 180 0 18
      vertex 152.007 10.7706 18
    endloop
  endfacet
  facet normal -0 0 1
    outer loop
      vertex 151.315 10.3036 18
      vertex 180 0 18
      vertex 151.678 10.5129 18
    endloop
  endfacet
  facet normal -0 0 1
    outer loop
      vertex 150.927 10.1468 18
      vertex 180 0 18
      vertex 151.315 10.3036 18
    endloop
  endfacet
  facet normal -0 0 1
    outer loop
      vertex 150.521 10.0456 18
      vertex 180 0 18
      vertex 150.927 10.1468 18
    endloop
  endfacet
  facet normal -0 0 1
    outer loop
      vertex 150.105 10.0018 18
      vertex 180 0 18
      vertex 150.521 10.0456 18
    endloop
  endfacet
  facet normal -0 0 1
    outer loop
      vertex 30.1047 10.0018 18
      vertex 180 0 18
      vertex 150.105 10.0018 18
    endloop
  endfacet
  facet normal 0 0 1
    outer loop
      vertex 0 0 18
      vertex 30.1047 10.0018 18
      vertex 29.6864 10.0164 18
    endloop
  endfacet
  facet normal 0 0 1
    outer loop
      vertex 27.0073 13.2093 18
      vertex 0 0 18
      vertex 27.0073 12.7907 18
    endloop
  endfacet
  facet normal 0 0 1
    outer loop
      vertex 27.0073 12.7907 18
      vertex 0 0 18
      vertex 27.0656 12.3763 18
    endloop
  endfacet
  facet normal 0 0 1
    outer loop
      vertex 27.0656 12.3763 18
      vertex 0 0 18
      vertex 27.1809 11.9739 18
    endloop
  endfacet
  facet normal 0 0 1
    outer loop
      vertex 27.1809 11.9739 18
      vertex 0 0 18
      vertex 27.3512 11.5916 18
    endloop
  endfacet
  facet normal 0 0 1
    outer loop
      vertex 27.3512 11.5916 18
      vertex 0 0 18
      vertex 27.5729 11.2366 18
    endloop
  endfacet
  facet normal 0 0 1
    outer loop
      vertex 27.5729 11.2366 18
      vertex 0 0 18
      vertex 27.842 10.916 18
    endloop
  endfacet
  facet normal 0 0 1
    outer loop
      vertex 30.1047 10.0018 18
      vertex 0 0 18
      vertex 180 0 18
    endloop
  endfacet
  facet normal 0 0 1
    outer loop
      vertex 29.2742 10.0891 18
      vertex 0 0 18
      vertex 29.6864 10.0164 18
    endloop
  endfacet
  facet normal 0 0 1
    outer loop
      vertex 28.8762 10.2184 18
      vertex 0 0 18
      vertex 29.2742 10.0891 18
    endloop
  endfacet
  facet normal 0 0 1
    outer loop
      vertex 28.5 10.4019 18
      vertex 0 0 18
      vertex 28.8762 10.2184 18
    endloop
  endfacet
  facet normal 0 0 1
    outer loop
      vertex 28.153 10.636 18
      vertex 0 0 18
      vertex 28.5 10.4019 18
    endloop
  endfacet
  facet normal 0 0 1
    outer loop
      vertex 27.842 10.916 18
      vertex 0 0 18
      vertex 28.153 10.636 18
    endloop
  endfacet
  facet normal 0 0 -1
    outer loop
      vertex 152.971 13.4175 0
      vertex 180 0 0
      vertex 153 13 0
    endloop
  endfacet
  facet normal 0 0 -1
    outer loop
      vertex 180 0 0
      vertex 152.971 12.5825 0
      vertex 153 13 0
    endloop
  endfacet
  facet normal 0 0 -1
    outer loop
      vertex 180 0 0
      vertex 152.884 12.1731 0
      vertex 152.971 12.5825 0
    endloop
  endfacet
  facet normal 0 0 -1
    outer loop
      vertex 180 0 0
      vertex 152.741 11.7798 0
      vertex 152.884 12.1731 0
    endloop
  endfacet
  facet normal 0 0 -1
    outer loop
      vertex 180 0 0
      vertex 152.544 11.4102 0
      vertex 152.741 11.7798 0
    endloop
  endfacet
  facet normal 0 0 -1
    outer loop
      vertex 180 0 0
      vertex 152.298 11.0716 0
      vertex 152.544 11.4102 0
    endloop
  endfacet
  facet normal 0 0 -1
    outer loop
      vertex 180 0 0
      vertex 152.007 10.7706 0
      vertex 152.298 11.0716 0
    endloop
  endfacet
  facet normal 0 0 -1
    outer loop
      vertex 180 0 0
      vertex 151.678 10.5129 0
      vertex 152.007 10.7706 0
    endloop
  endfacet
  facet normal 0 0 -1
    outer loop
      vertex 180 0 0
      vertex 151.315 10.3036 0
      vertex 151.678 10.5129 0
    endloop
  endfacet
  facet normal 0 0 -1
    outer loop
      vertex 180 0 0
      vertex 150.927 10.1468 0
      vertex 151.315 10.3036 0
    endloop
  endfacet
  facet normal 0 0 -1
    outer loop
      vertex 180 0 0
      vertex 150.521 10.0456 0
      vertex 150.927 10.1468 0
    endloop
  endfacet
  facet normal 0 0 -1
    outer loop
      vertex 180 0 0
      vertex 150.105 10.0018 0
      vertex 150.521 10.0456 0
    endloop
  endfacet
  facet normal 0 0 -1
    outer loop
      vertex 180 0 0
      vertex 30.1047 10.0018 0
      vertex 150.105 10.0018 0
    endloop
  endfacet
  facet normal 0 0 -1
    outer loop
      vertex 0 0 0
      vertex 30.1047 10.0018 0
      vertex 180 0 0
    endloop
  endfacet
  facet normal -0 0 -1
    outer loop
      vertex 27.0073 12.7907 0
      vertex 0 0 0
      vertex 27.0073 13.2093 0
    endloop
  endfacet
  facet normal -0 0 -1
    outer loop
      vertex 27.0656 12.3763 0
      vertex 0 0 0
      vertex 27.0073 12.7907 0
    endloop
  endfacet
  facet normal -0 0 -1
    outer loop
      vertex 27.1809 11.9739 0
      vertex 0 0 0
      vertex 27.0656 12.3763 0
    endloop
  endfacet
  facet normal -0 0 -1
    outer loop
      vertex 27.3512 11.5916 0
      vertex 0 0 0
      vertex 27.1809 11.9739 0
    endloop
  endfacet
  facet normal -0 0 -1
    outer loop
      vertex 27.5729 11.2366 0
      vertex 0 0 0
      vertex 27.3512 11.5916 0
    endloop
  endfacet
  facet normal -0 0 -1
    outer loop
      vertex 27.842 10.916 0
      vertex 0 0 0
      vertex 27.5729 11.2366 0
    endloop
  endfacet
  facet normal -0 0 -1
    outer loop
      vertex 28.153 10.636 0
      vertex 0 0 0
      vertex 27.842 10.916 0
    endloop
  endfacet
  facet normal -0 0 -1
    outer loop
      vertex 28.5 10.4019 0
      vertex 0 0 0
      vertex 28.153 10.636 0
    endloop
  endfacet
  facet normal -0 0 -1
    outer loop
      vertex 28.8762 10.2184 0
      vertex 0 0 0
      vertex 28.5 10.4019 0
    endloop
  endfacet
  facet normal -0 0 -1
    outer loop
      vertex 29.2742 10.0891 0
      vertex 0 0 0
      vertex 28.8762 10.2184 0
    endloop
  endfacet
  facet normal -0 0 -1
    outer loop
      vertex 29.6864 10.0164 0
      vertex 0 0 0
      vertex 29.2742 10.0891 0
    endloop
  endfacet
  facet normal -0 0 -1
    outer loop
      vertex 30.1047 10.0018 0
      vertex 0 0 0
      vertex 29.6864 10.0164 0
    endloop
  endfacet
  facet normal 0 0 -1
    outer loop
      vertex 180 0 0
      vertex 152.971 13.4175 0
      vertex 180 30 0
    endloop
  endfacet
  facet normal 0 0 -1
    outer loop
      vertex 152.884 13.8269 0
      vertex 180 30 0
      vertex 152.971 13.4175 0
    endloop
  endfacet
  facet normal 0 0 -1
    outer loop
      vertex 152.741 14.2202 0
      vertex 180 30 0
      vertex 152.884 13.8269 0
    endloop
  endfacet
  facet normal 0 0 -1
    outer loop
      vertex 152.544 14.5898 0
      vertex 180 30 0
      vertex 152.741 14.2202 0
    endloop
  endfacet
  facet normal 0 0 -1
    outer loop
      vertex 152.298 14.9284 0
      vertex 180 30 0
      vertex 152.544 14.5898 0
    endloop
  endfacet
  facet normal 0 0 -1
    outer loop
      vertex 152.007 15.2294 0
      vertex 180 30 0
      vertex 152.298 14.9284 0
    endloop
  endfacet
  facet normal 0 0 -1
    outer loop
      vertex 151.678 15.4871 0
      vertex 180 30 0
      vertex 152.007 15.2294 0
    endloop
  endfacet
  facet normal 0 0 -1
    outer loop
      vertex 151.315 15.6964 0
      vertex 180 30 0
      vertex 151.678 15.4871 0
    endloop
  endfacet
  facet normal 0 0 -1
    outer loop
      vertex 150.927 15.8532 0
      vertex 180 30 0
      vertex 151.315 15.6964 0
    endloop
  endfacet
  facet normal 0 0 -1
    outer loop
      vertex 150.521 15.9544 0
      vertex 180 30 0
      vertex 150.927 15.8532 0
    endloop
  endfacet
  facet normal 0 0 -1
    outer loop
      vertex 150.105 15.9982 0
      vertex 180 30 0
      vertex 150.521 15.9544 0
    endloop
  endfacet
  facet normal 0 0 -1
    outer loop
      vertex 30.1047 15.9982 0
      vertex 180 30 0
      vertex 150.105 15.9982 0
    endloop
  endfacet
  facet normal 0 0 -1
    outer loop
      vertex 0 30 0
      vertex 30.1047 15.9982 0
      vertex 29.6864 15.9836 0
    endloop
  endfacet
  facet normal 0 0 -1
    outer loop
      vertex 0 30 0
      vertex 27.0073 13.2093 0
      vertex 0 0 0
    endloop
  endfacet
  facet normal 0 0 -1
    outer loop
      vertex 27.0073 13.2093 0
      vertex 0 30 0
      vertex 27.0656 13.6237 0
    endloop
  endfacet
  facet normal 0 0 -1
    outer loop
      vertex 27.0656 13.6237 0
      vertex 0 30 0
      vertex 27.1809 14.0261 0
    endloop
  endfacet
  facet normal 0 0 -1
    outer loop
      vertex 27.1809 14.0261 0
      vertex 0 30 0
      vertex 27.3512 14.4084 0
    endloop
  endfacet
  facet normal 0 0 -1
    outer loop
      vertex 27.3512 14.4084 0
      vertex 0 30 0
      vertex 27.5729 14.7634 0
    endloop
  endfacet
  facet normal 0 0 -1
    outer loop
      vertex 27.5729 14.7634 0
      vertex 0 30 0
      vertex 27.842 15.084 0
    endloop
  endfacet
  facet normal 0 0 -1
    outer loop
      vertex 27.842 15.084 0
      vertex 0 30 0
      vertex 28.153 15.364 0
    endloop
  endfacet
  facet normal 0 0 -1
    outer loop
      vertex 30.1047 15.9982 0
      vertex 0 30 0
      vertex 180 30 0
    endloop
  endfacet
  facet normal 0 0 -1
    outer loop
      vertex 29.2742 15.9109 0
      vertex 0 30 0
      vertex 29.6864 15.9836 0
    endloop
  endfacet
  facet normal 0 0 -1
    outer loop
      vertex 28.8762 15.7816 0
      vertex 0 30 0
      vertex 29.2742 15.9109 0
    endloop
  endfacet
  facet normal 0 0 -1
    outer loop
      vertex 28.5 15.5981 0
      vertex 0 30 0
      vertex 28.8762 15.7816 0
    endloop
  endfacet
  facet normal 0 0 -1
    outer loop
      vertex 28.153 15.364 0
      vertex 0 30 0
      vertex 28.5 15.5981 0
    endloop
  endfacet
  facet normal -1 0 0
    outer loop
      vertex 0 0 0
      vertex 0 30 18
      vertex 0 30 0
    endloop
  endfacet
  facet normal -1 -0 0
    outer loop
      vertex 0 30 18
      vertex 0 0 0
      vertex 0 0 18
    endloop
  endfacet
  facet normal 0 1 -0
    outer loop
      vertex 180 30 0
      vertex 0 30 18
      vertex 180 30 18
    endloop
  endfacet
  facet normal 0 1 0
    outer loop
      vertex 0 30 18
      vertex 180 30 0
      vertex 0 30 0
    endloop
  endfacet
  facet normal 0 -1 0
    outer loop
      vertex 0 0 0
      vertex 180 0 18
      vertex 0 0 18
    endloop
  endfacet
  facet normal 0 -1 -0
    outer loop
      vertex 180 0 18
      vertex 0 0 0
      vertex 180 0 0
    endloop
  endfacet
  facet normal 1 -0 0
    outer loop
      vertex 27.0073 12.7907 18
      vertex 27.0073 13.2093 0
      vertex 27.0073 13.2093 18
    endloop
  endfacet
  facet normal 1 0 0
    outer loop
      vertex 27.0073 13.2093 0
      vertex 27.0073 12.7907 18
      vertex 27.0073 12.7907 0
    endloop
  endfacet
  facet normal -0.241861 0.970311 0
    outer loop
      vertex 150.927 10.1468 0
      vertex 150.521 10.0456 18
      vertex 150.927 10.1468 18
    endloop
  endfacet
  facet normal -0.241861 0.970311 0
    outer loop
      vertex 150.521 10.0456 18
      vertex 150.927 10.1468 0
      vertex 150.521 10.0456 0
    endloop
  endfacet
  facet normal -0.10471 -0.994503 0
    outer loop
      vertex 150.105 15.9982 0
      vertex 150.521 15.9544 18
      vertex 150.105 15.9982 18
    endloop
  endfacet
  facet normal -0.10471 -0.994503 -0
    outer loop
      vertex 150.521 15.9544 18
      vertex 150.105 15.9982 0
      vertex 150.521 15.9544 0
    endloop
  endfacet
  facet normal 0.765945 0.642906 0
    outer loop
      vertex 27.842 10.916 18
      vertex 27.5729 11.2366 0
      vertex 27.5729 11.2366 18
    endloop
  endfacet
  facet normal 0.765945 0.642906 0
    outer loop
      vertex 27.5729 11.2366 0
      vertex 27.842 10.916 18
      vertex 27.842 10.916 0
    endloop
  endfacet
  facet normal 0.990248 0.139313 0
    outer loop
      vertex 27.0656 12.3763 18
      vertex 27.0073 12.7907 0
      vertex 27.0073 12.7907 18
    endloop
  endfacet
  facet normal 0.990248 0.139313 0
    outer loop
      vertex 27.0073 12.7907 0
      vertex 27.0656 12.3763 18
      vertex 27.0656 12.3763 0
    endloop
  endfacet
  facet normal 0.765945 -0.642906 0
    outer loop
      vertex 27.5729 14.7634 18
      vertex 27.842 15.084 0
      vertex 27.842 15.084 18
    endloop
  endfacet
  facet normal 0.765945 -0.642906 0
    outer loop
      vertex 27.842 15.084 0
      vertex 27.5729 14.7634 18
      vertex 27.5729 14.7634 0
    endloop
  endfacet
  facet normal 0 1 -0
    outer loop
      vertex 150.105 10.0018 0
      vertex 30.1047 10.0018 18
      vertex 150.105 10.0018 18
    endloop
  endfacet
  facet normal 0 1 0
    outer loop
      vertex 30.1047 10.0018 18
      vertex 150.105 10.0018 0
      vertex 30.1047 10.0018 0
    endloop
  endfacet
  facet normal -0.718949 0.695063 0
    outer loop
      vertex 152.007 10.7706 0
      vertex 152.298 11.0716 18
      vertex 152.298 11.0716 0
    endloop
  endfacet
  facet normal -0.718949 0.695063 0
    outer loop
      vertex 152.298 11.0716 18
      vertex 152.007 10.7706 0
      vertex 152.007 10.7706 18
    endloop
  endfacet
  facet normal -0.10471 0.994503 0
    outer loop
      vertex 150.521 10.0456 0
      vertex 150.105 10.0018 18
      vertex 150.521 10.0456 18
    endloop
  endfacet
  facet normal -0.10471 0.994503 0
    outer loop
      vertex 150.105 10.0018 18
      vertex 150.521 10.0456 0
      vertex 150.105 10.0018 0
    endloop
  endfacet
  facet normal 0.961316 -0.275447 0
    outer loop
      vertex 27.0656 13.6237 18
      vertex 27.1809 14.0261 0
      vertex 27.1809 14.0261 18
    endloop
  endfacet
  facet normal 0.961316 -0.275447 0
    outer loop
      vertex 27.1809 14.0261 0
      vertex 27.0656 13.6237 18
      vertex 27.0656 13.6237 0
    endloop
  endfacet
  facet normal 0.308978 -0.951069 0
    outer loop
      vertex 28.8762 15.7816 0
      vertex 29.2742 15.9109 18
      vertex 28.8762 15.7816 18
    endloop
  endfacet
  facet normal 0.308978 -0.951069 0
    outer loop
      vertex 29.2742 15.9109 18
      vertex 28.8762 15.7816 0
      vertex 29.2742 15.9109 0
    endloop
  endfacet
  facet normal 0 -1 0
    outer loop
      vertex 30.1047 15.9982 0
      vertex 150.105 15.9982 18
      vertex 30.1047 15.9982 18
    endloop
  endfacet
  facet normal 0 -1 -0
    outer loop
      vertex 150.105 15.9982 18
      vertex 30.1047 15.9982 0
      vertex 150.105 15.9982 0
    endloop
  endfacet
  facet normal 0.669097 -0.743175 0
    outer loop
      vertex 27.842 15.084 0
      vertex 28.153 15.364 18
      vertex 27.842 15.084 18
    endloop
  endfacet
  facet normal 0.669097 -0.743175 0
    outer loop
      vertex 28.153 15.364 18
      vertex 27.842 15.084 0
      vertex 28.153 15.364 0
    endloop
  endfacet
  facet normal -0.718949 -0.695063 0
    outer loop
      vertex 152.298 14.9284 0
      vertex 152.007 15.2294 18
      vertex 152.007 15.2294 0
    endloop
  endfacet
  facet normal -0.718949 -0.695063 0
    outer loop
      vertex 152.007 15.2294 18
      vertex 152.298 14.9284 0
      vertex 152.298 14.9284 18
    endloop
  endfacet
  facet normal -0.374684 0.927152 0
    outer loop
      vertex 151.315 10.3036 0
      vertex 150.927 10.1468 18
      vertex 151.315 10.3036 18
    endloop
  endfacet
  facet normal -0.374684 0.927152 0
    outer loop
      vertex 150.927 10.1468 18
      vertex 151.315 10.3036 0
      vertex 150.927 10.1468 0
    endloop
  endfacet
  facet normal -0.499502 0.866313 0
    outer loop
      vertex 151.678 10.5129 0
      vertex 151.315 10.3036 18
      vertex 151.678 10.5129 18
    endloop
  endfacet
  facet normal -0.499502 0.866313 0
    outer loop
      vertex 151.315 10.3036 18
      vertex 151.678 10.5129 0
      vertex 151.315 10.3036 0
    endloop
  endfacet
  facet normal 0.961316 0.275447 0
    outer loop
      vertex 27.1809 11.9739 18
      vertex 27.0656 12.3763 0
      vertex 27.0656 12.3763 18
    endloop
  endfacet
  facet normal 0.961316 0.275447 0
    outer loop
      vertex 27.0656 12.3763 0
      vertex 27.1809 11.9739 18
      vertex 27.1809 11.9739 0
    endloop
  endfacet
  facet normal 0.308978 0.951069 -0
    outer loop
      vertex 29.2742 10.0891 0
      vertex 28.8762 10.2184 18
      vertex 29.2742 10.0891 18
    endloop
  endfacet
  facet normal 0.308978 0.951069 0
    outer loop
      vertex 28.8762 10.2184 18
      vertex 29.2742 10.0891 0
      vertex 28.8762 10.2184 0
    endloop
  endfacet
  facet normal 0.17369 0.9848 -0
    outer loop
      vertex 29.6864 10.0164 0
      vertex 29.2742 10.0891 18
      vertex 29.6864 10.0164 18
    endloop
  endfacet
  facet normal 0.17369 0.9848 0
    outer loop
      vertex 29.2742 10.0891 18
      vertex 29.6864 10.0164 0
      vertex 29.2742 10.0891 0
    endloop
  endfacet
  facet normal 0.0348819 0.999391 -0
    outer loop
      vertex 30.1047 10.0018 0
      vertex 29.6864 10.0164 18
      vertex 30.1047 10.0018 18
    endloop
  endfacet
  facet normal 0.0348819 0.999391 0
    outer loop
      vertex 29.6864 10.0164 18
      vertex 30.1047 10.0018 0
      vertex 29.6864 10.0164 0
    endloop
  endfacet
  facet normal -0.809025 0.587774 0
    outer loop
      vertex 152.298 11.0716 0
      vertex 152.544 11.4102 18
      vertex 152.544 11.4102 0
    endloop
  endfacet
  facet normal -0.809025 0.587774 0
    outer loop
      vertex 152.544 11.4102 18
      vertex 152.298 11.0716 0
      vertex 152.298 11.0716 18
    endloop
  endfacet
  facet normal -0.939807 0.341705 0
    outer loop
      vertex 152.741 11.7798 0
      vertex 152.884 12.1731 18
      vertex 152.884 12.1731 0
    endloop
  endfacet
  facet normal -0.939807 0.341705 0
    outer loop
      vertex 152.884 12.1731 18
      vertex 152.741 11.7798 0
      vertex 152.741 11.7798 18
    endloop
  endfacet
  facet normal -0.374684 -0.927152 0
    outer loop
      vertex 150.927 15.8532 0
      vertex 151.315 15.6964 18
      vertex 150.927 15.8532 18
    endloop
  endfacet
  facet normal -0.374684 -0.927152 -0
    outer loop
      vertex 151.315 15.6964 18
      vertex 150.927 15.8532 0
      vertex 151.315 15.6964 0
    endloop
  endfacet
  facet normal 0.669097 0.743175 -0
    outer loop
      vertex 28.153 10.636 0
      vertex 27.842 10.916 18
      vertex 28.153 10.636 18
    endloop
  endfacet
  facet normal 0.669097 0.743175 0
    outer loop
      vertex 27.842 10.916 18
      vertex 28.153 10.636 0
      vertex 27.842 10.916 0
    endloop
  endfacet
  facet normal -0.978158 -0.207864 0
    outer loop
      vertex 152.971 13.4175 0
      vertex 152.884 13.8269 18
      vertex 152.884 13.8269 0
    endloop
  endfacet
  facet normal -0.978158 -0.207864 0
    outer loop
      vertex 152.884 13.8269 18
      vertex 152.971 13.4175 0
      vertex 152.971 13.4175 18
    endloop
  endfacet
  facet normal 0.0348819 -0.999391 0
    outer loop
      vertex 29.6864 15.9836 0
      vertex 30.1047 15.9982 18
      vertex 29.6864 15.9836 18
    endloop
  endfacet
  facet normal 0.0348819 -0.999391 0
    outer loop
      vertex 30.1047 15.9982 18
      vertex 29.6864 15.9836 0
      vertex 30.1047 15.9982 0
    endloop
  endfacet
  facet normal -0.882472 0.470365 0
    outer loop
      vertex 152.544 11.4102 0
      vertex 152.741 11.7798 18
      vertex 152.741 11.7798 0
    endloop
  endfacet
  facet normal -0.882472 0.470365 0
    outer loop
      vertex 152.741 11.7798 18
      vertex 152.544 11.4102 0
      vertex 152.544 11.4102 18
    endloop
  endfacet
  facet normal -0.997596 -0.0692941 0
    outer loop
      vertex 153 13 0
      vertex 152.971 13.4175 18
      vertex 152.971 13.4175 0
    endloop
  endfacet
  facet normal -0.997596 -0.0692941 0
    outer loop
      vertex 152.971 13.4175 18
      vertex 153 13 0
      vertex 153 13 18
    endloop
  endfacet
  facet normal -0.882472 -0.470365 0
    outer loop
      vertex 152.741 14.2202 0
      vertex 152.544 14.5898 18
      vertex 152.544 14.5898 0
    endloop
  endfacet
  facet normal -0.882472 -0.470365 0
    outer loop
      vertex 152.544 14.5898 18
      vertex 152.741 14.2202 0
      vertex 152.741 14.2202 18
    endloop
  endfacet
  facet normal -0.997596 0.0692941 0
    outer loop
      vertex 152.971 12.5825 0
      vertex 153 13 18
      vertex 153 13 0
    endloop
  endfacet
  facet normal -0.997596 0.0692941 0
    outer loop
      vertex 153 13 18
      vertex 152.971 12.5825 0
      vertex 152.971 12.5825 18
    endloop
  endfacet
  facet normal 0.848186 0.529698 0
    outer loop
      vertex 27.5729 11.2366 18
      vertex 27.3512 11.5916 0
      vertex 27.3512 11.5916 18
    endloop
  endfacet
  facet normal 0.848186 0.529698 0
    outer loop
      vertex 27.3512 11.5916 0
      vertex 27.5729 11.2366 18
      vertex 27.5729 11.2366 0
    endloop
  endfacet
  facet normal -0.616637 0.787247 0
    outer loop
      vertex 152.007 10.7706 0
      vertex 151.678 10.5129 18
      vertex 152.007 10.7706 18
    endloop
  endfacet
  facet normal -0.616637 0.787247 0
    outer loop
      vertex 151.678 10.5129 18
      vertex 152.007 10.7706 0
      vertex 151.678 10.5129 0
    endloop
  endfacet
  facet normal -0.616637 -0.787247 0
    outer loop
      vertex 151.678 15.4871 0
      vertex 152.007 15.2294 18
      vertex 151.678 15.4871 18
    endloop
  endfacet
  facet normal -0.616637 -0.787247 -0
    outer loop
      vertex 152.007 15.2294 18
      vertex 151.678 15.4871 0
      vertex 152.007 15.2294 0
    endloop
  endfacet
  facet normal -0.939807 -0.341705 0
    outer loop
      vertex 152.884 13.8269 0
      vertex 152.741 14.2202 18
      vertex 152.741 14.2202 0
    endloop
  endfacet
  facet normal -0.939807 -0.341705 0
    outer loop
      vertex 152.741 14.2202 18
      vertex 152.884 13.8269 0
      vertex 152.884 13.8269 18
    endloop
  endfacet
  facet normal 0.559268 -0.828987 0
    outer loop
      vertex 28.153 15.364 0
      vertex 28.5 15.5981 18
      vertex 28.153 15.364 18
    endloop
  endfacet
  facet normal 0.559268 -0.828987 0
    outer loop
      vertex 28.5 15.5981 18
      vertex 28.153 15.364 0
      vertex 28.5 15.5981 0
    endloop
  endfacet
  facet normal 0.4384 0.89878 -0
    outer loop
      vertex 28.8762 10.2184 0
      vertex 28.5 10.4019 18
      vertex 28.8762 10.2184 18
    endloop
  endfacet
  facet normal 0.4384 0.89878 0
    outer loop
      vertex 28.5 10.4019 18
      vertex 28.8762 10.2184 0
      vertex 28.5 10.4019 0
    endloop
  endfacet
  facet normal 0.4384 -0.89878 0
    outer loop
      vertex 28.5 15.5981 0
      vertex 28.8762 15.7816 18
      vertex 28.5 15.5981 18
    endloop
  endfacet
  facet normal 0.4384 -0.89878 0
    outer loop
      vertex 28.8762 15.7816 18
      vertex 28.5 15.5981 0
      vertex 28.8762 15.7816 0
    endloop
  endfacet
  facet normal 0.990248 -0.139313 0
    outer loop
      vertex 27.0073 13.2093 18
      vertex 27.0656 13.6237 0
      vertex 27.0656 13.6237 18
    endloop
  endfacet
  facet normal 0.990248 -0.139313 0
    outer loop
      vertex 27.0656 13.6237 0
      vertex 27.0073 13.2093 18
      vertex 27.0073 13.2093 0
    endloop
  endfacet
  facet normal -0.978158 0.207864 0
    outer loop
      vertex 152.884 12.1731 0
      vertex 152.971 12.5825 18
      vertex 152.971 12.5825 0
    endloop
  endfacet
  facet normal -0.978158 0.207864 0
    outer loop
      vertex 152.971 12.5825 18
      vertex 152.884 12.1731 0
      vertex 152.884 12.1731 18
    endloop
  endfacet
  facet normal 0.848186 -0.529698 0
    outer loop
      vertex 27.3512 14.4084 18
      vertex 27.5729 14.7634 0
      vertex 27.5729 14.7634 18
    endloop
  endfacet
  facet normal 0.848186 -0.529698 0
    outer loop
      vertex 27.5729 14.7634 0
      vertex 27.3512 14.4084 18
      vertex 27.3512 14.4084 0
    endloop
  endfacet
  facet normal 0.913466 -0.406914 0
    outer loop
      vertex 27.1809 14.0261 18
      vertex 27.3512 14.4084 0
      vertex 27.3512 14.4084 18
    endloop
  endfacet
  facet normal 0.913466 -0.406914 0
    outer loop
      vertex 27.3512 14.4084 0
      vertex 27.1809 14.0261 18
      vertex 27.1809 14.0261 0
    endloop
  endfacet
  facet normal 0.17369 -0.9848 0
    outer loop
      vertex 29.2742 15.9109 0
      vertex 29.6864 15.9836 18
      vertex 29.2742 15.9109 18
    endloop
  endfacet
  facet normal 0.17369 -0.9848 0
    outer loop
      vertex 29.6864 15.9836 18
      vertex 29.2742 15.9109 0
      vertex 29.6864 15.9836 0
    endloop
  endfacet
  facet normal -0.499502 -0.866313 0
    outer loop
      vertex 151.315 15.6964 0
      vertex 151.678 15.4871 18
      vertex 151.315 15.6964 18
    endloop
  endfacet
  facet normal -0.499502 -0.866313 -0
    outer loop
      vertex 151.678 15.4871 18
      vertex 151.315 15.6964 0
      vertex 151.678 15.4871 0
    endloop
  endfacet
  facet normal -0.241861 -0.970311 0
    outer loop
      vertex 150.521 15.9544 0
      vertex 150.927 15.8532 18
      vertex 150.521 15.9544 18
    endloop
  endfacet
  facet normal -0.241861 -0.970311 -0
    outer loop
      vertex 150.927 15.8532 18
      vertex 150.521 15.9544 0
      vertex 150.927 15.8532 0
    endloop
  endfacet
  facet normal 0.913466 0.406914 0
    outer loop
      vertex 27.3512 11.5916 18
      vertex 27.1809 11.9739 0
      vertex 27.1809 11.9739 18
    endloop
  endfacet
  facet normal 0.913466 0.406914 0
    outer loop
      vertex 27.1809 11.9739 0
      vertex 27.3512 11.5916 18
      vertex 27.3512 11.5916 0
    endloop
  endfacet
  facet normal 0.559268 0.828987 -0
    outer loop
      vertex 28.5 10.4019 0
      vertex 28.153 10.636 18
      vertex 28.5 10.4019 18
    endloop
  endfacet
  facet normal 0.559268 0.828987 0
    outer loop
      vertex 28.153 10.636 18
      vertex 28.5 10.4019 0
      vertex 28.153 10.636 0
    endloop
  endfacet
  facet normal -0.809025 -0.587774 0
    outer loop
      vertex 152.544 14.5898 0
      vertex 152.298 14.9284 18
      vertex 152.298 14.9284 0
    endloop
  endfacet
  facet normal -0.809025 -0.587774 0
    outer loop
      vertex 152.298 14.9284 18
      vertex 152.544 14.5898 0
      vertex 152.544 14.5898 18
    endloop
  endfacet
endsolid OpenSCAD_Model
